<?xml version="1.0" encoding="utf-8"?>
<!-- Svg Vector Icons : http://www.onlinewebfonts.com/icon -->
<!DOCTYPE svg PUBLIC "-//W3C//DTD SVG 1.1//EN" "http://www.w3.org/Graphics/SVG/1.1/DTD/svg11.dtd">
<svg version="1.1" xmlns="http://www.w3.org/2000/svg" xmlns:xlink="http://www.w3.org/1999/xlink" x="0px" y="0px" viewBox="0 0 256 256" enable-background="new 0 0 256 256" xml:space="preserve">
<metadata> Svg Vector Icons : http://www.onlinewebfonts.com/icon </metadata>
<g><g><g><g><path fill="#000000" d="M161.2,125.2c-18.1-31.4-16.8-68.6,0-97.9c-16.7,0-33.5,4.1-49,13.1c-33.3,19.3-51,55.1-48.7,91.1c7.9,0.3,15.4,3.1,21.4,8.1c5.7-3.2,12-4.8,18.6-4.8c17.5,0,32.6,11.8,37.4,28.2c12.4,3.8,21,15.2,21,28.6c0,14-9.7,25.7-22.7,29c23.3,5.4,48.6,2.4,70.9-10.5c15.5-8.9,27.5-21.5,35.8-35.9C212.2,174,179.3,156.5,161.2,125.2z"/><path fill="#000000" d="M153.7,191.5c0-11.3-8.7-20.6-19.8-21.6c-1.9-15.2-14.7-27-30.4-27c-7.5,0-14.3,2.8-19.6,7.2c-5-6.4-12.8-10.6-21.6-10.6c-13.1,0-24,9.2-26.8,21.5C21.3,162,10,173.8,10,188.3c0,15.1,12.3,27.5,27.5,27.5c3.2,0,6.3-0.7,9.2-1.7c5,6.9,13,11.4,22.2,11.4c5.6,0,10.8-1.7,15.1-4.6c5,4.8,11.7,7.8,19.1,7.8c11,0,20.3-6.5,24.8-15.8c1.3,0.3,2.7,0.4,4.2,0.4C144,213.3,153.7,203.6,153.7,191.5z"/><path fill="#000000" d="M213.6 137.3L217.5 128.7 226.8 127.1 219.8 120.7 221.1 111.3 212.9 116 204.4 111.8 206.3 121.1 199.7 127.9 209.1 129 z"/><path fill="#000000" d="M25.6 114.2L32.3 110.7 38.9 114.3 37.7 106.9 43.2 101.7 35.7 100.5 32.5 93.8 29.1 100.5 21.6 101.5 27 106.8 z"/><path fill="#000000" d="M177.6 97.4L180.6 103.1 183.3 97.2 189.7 96.1 184.9 91.7 185.8 85.3 180.2 88.5 174.3 85.7 175.6 92 171.1 96.7 z"/><path fill="#000000" d="M208.3 80.5L210.2 83.9 211.9 80.3 215.8 79.6 212.8 76.9 213.4 73 209.9 75 206.3 73.2 207.1 77.1 204.4 80 z"/><path fill="#000000" d="M67.2 56.8L69.1 60.3 70.7 56.7 74.6 56 71.7 53.3 72.2 49.4 68.8 51.3 65.2 49.6 66 53.5 63.2 56.4 z"/></g></g><g></g><g></g><g></g><g></g><g></g><g></g><g></g><g></g><g></g><g></g><g></g><g></g><g></g><g></g><g></g></g></g>
</svg>